<svg id="Layer_1" data-name="Layer 1" xmlns="http://www.w3.org/2000/svg" viewBox="0 0 50 50"><defs><style>.cls-1{fill:#edeff0;}.cls-2{fill:#b0bec5;}.cls-3{fill:#231f20;}.cls-4{fill:#384850;}.cls-5{fill:#929497;}.cls-6{fill:#ef4438;}.cls-7{fill:#da443b;}.cls-8{fill:#fcb52d;}.cls-9{fill:#fff;fill-rule:evenodd;}</style></defs><title>Untitled-2</title><path class="cls-1" d="M595.49,445.56a25,25,0,1,0-25-25A25,25,0,0,0,595.49,445.56Z" transform="translate(-570.49 -395.56)"/><path class="cls-2" d="M619.32,427.33h-48a25,25,0,0,0,48,0Z" transform="translate(-570.49 -395.56)"/><path class="cls-3" d="M606.66,424l-21.61,5.52a1,1,0,0,1-1.16-.69l-3.19-12.52a1,1,0,0,1,.69-1.16L603,409.67a1,1,0,0,1,1.16.69l3.19,12.52A1,1,0,0,1,606.66,424Z" transform="translate(-570.49 -395.56)"/><path class="cls-4" d="M607.35,422.88l-3.19-12.52a1,1,0,0,0-1.16-.69l-1.76.45a1.22,1.22,0,0,1,.1.24l3.19,12.52a1,1,0,0,1-.69,1.15L584,429.1a1,1,0,0,0,1.06.45L606.66,424A1,1,0,0,0,607.35,422.88Z" transform="translate(-570.49 -395.56)"/><rect class="cls-5" x="581.03" y="414.37" width="24.21" height="3.47" transform="translate(-654.92 -236.09) rotate(-14.31)"/><path class="cls-6" d="M609.05,431.4h-22.3a1,1,0,0,1-1-1V417.53a1,1,0,0,1,1-.95h22.3a1,1,0,0,1,1,.95v12.91A1,1,0,0,1,609.05,431.4Z" transform="translate(-570.49 -395.56)"/><path class="cls-7" d="M609.05,416.58h-1.78a1.1,1.1,0,0,1,0,.18v12.92a1,1,0,0,1-.95.95H585.81a1,1,0,0,0,.94.77h22.3a1,1,0,0,0,1-1V417.53A1,1,0,0,0,609.05,416.58Z" transform="translate(-570.49 -395.56)"/><path class="cls-8" d="M591.09,424.15H589.2A1.18,1.18,0,0,1,588,423v-1.89a1.18,1.18,0,0,1,1.18-1.18h1.89a1.18,1.18,0,0,1,1.19,1.18V423A1.19,1.19,0,0,1,591.09,424.15Z" transform="translate(-570.49 -395.56)"/><path class="cls-4" d="M609.05,416.14h-3l-.37-1.45h0l-.86-3.36h0l-.27-1.07a1.39,1.39,0,0,0-1.69-1l-3.42.87a.43.43,0,0,0,.21.83l3.42-.87a.53.53,0,0,1,.64.38l.17.65-22.63,5.77-.16-.65a.51.51,0,0,1,0-.4.58.58,0,0,1,.32-.24l15.56-4a.43.43,0,0,0,.32-.52.44.44,0,0,0-.53-.31l-15.56,4a1.38,1.38,0,0,0-1,1.68L583.47,429a1.39,1.39,0,0,0,1.34,1.05,1.41,1.41,0,0,0,.35-.05l.2,0v.53a1.38,1.38,0,0,0,1.38,1.39h22.31a1.38,1.38,0,0,0,1.38-1.39V417.53A1.38,1.38,0,0,0,609.05,416.14ZM585.36,429l-.42.11a.52.52,0,0,1-.63-.38l-1.95-7.66,3-.77Zm0-11.49h0v1.9l-3.22.82-.3-1.18-.34-1.34,4.17-1.07A1.34,1.34,0,0,0,585.36,417.53ZM605,415.32l.21.82h-3.43Zm-.86-3.36.64,2.53-6.5,1.65H587.7Zm5.45,18.48a.52.52,0,0,1-.52.52h-22.3a.52.52,0,0,1-.53-.52V417.53a.52.52,0,0,1,.53-.52h22.3a.52.52,0,0,1,.52.52v12.91Z" transform="translate(-570.49 -395.56)"/><path class="cls-4" d="M588,427.63h9.4a.44.44,0,0,0,0-.87H588a.44.44,0,0,0,0,.87Z" transform="translate(-570.49 -395.56)"/><path class="cls-4" d="M589.2,424.58h1.89a1.63,1.63,0,0,0,1.62-1.62v-1.89a1.62,1.62,0,0,0-1.62-1.61H589.2a1.61,1.61,0,0,0-1.61,1.61V423A1.62,1.62,0,0,0,589.2,424.58Zm-.75-2.7h.92a.44.44,0,0,0,0-.87h-.92a.76.76,0,0,1,.75-.69h1.89a.75.75,0,0,1,.75.69h-.92a.44.44,0,0,0,0,.87h.92v.37h-.92a.43.43,0,1,0,0,.86h.91a.75.75,0,0,1-.74.61H589.2a.76.76,0,0,1-.74-.61h.91a.43.43,0,0,0,0-.86h-.92Z" transform="translate(-570.49 -395.56)"/><path class="cls-4" d="M600.1,428.66h-7.57a.44.44,0,0,0,0,.87h7.57a.44.44,0,0,0,0-.87Z" transform="translate(-570.49 -395.56)"/><path class="cls-4" d="M589.78,428.66H588a.44.44,0,0,0,0,.87h1.76a.44.44,0,0,0,0-.87Z" transform="translate(-570.49 -395.56)"/><path class="cls-4" d="M595,421.92a.89.89,0,0,0-.27-.63.16.16,0,0,0-.24,0,.18.18,0,0,0,0,.24.53.53,0,0,1,0,.78.21.21,0,0,0,0,.12.17.17,0,0,0,0,.12.16.16,0,0,0,.24,0,.87.87,0,0,0,.27-.63Zm0,0" transform="translate(-570.49 -395.56)"/><path class="cls-4" d="M595.58,421.92a1.48,1.48,0,0,0-.43-1,.17.17,0,0,0-.24.24,1.11,1.11,0,0,1,0,1.58.17.17,0,0,0,0,.24.16.16,0,0,0,.24,0,1.46,1.46,0,0,0,.43-1Zm0,0" transform="translate(-570.49 -395.56)"/><path class="cls-4" d="M595.55,423.35a2,2,0,0,0,0-2.86.18.18,0,0,0-.24,0,.16.16,0,0,0,0,.12.13.13,0,0,0,0,.12,1.69,1.69,0,0,1,0,2.38.16.16,0,0,0,0,.24.18.18,0,0,0,.24,0Zm0,0" transform="translate(-570.49 -395.56)"/><path class="cls-4" d="M594.17,422.3a.12.12,0,0,1-.09,0,.14.14,0,0,1,0-.2.16.16,0,0,0,0-.24.14.14,0,0,1,0-.2.15.15,0,0,1,.21,0,.48.48,0,0,1,.14.34.46.46,0,0,1-.11.3A.16.16,0,0,1,594.17,422.3Z" transform="translate(-570.49 -395.56)"/><polygon class="cls-9" points="33.71 34 34 32.3 34.47 32.3 34.17 34 33.71 34 33.71 34"/><path class="cls-9" d="M606.34,427.9a1.27,1.27,0,0,0-.41-.07c-.46,0-.78.23-.78.56s.23.38.4.46.24.14.24.22-.14.16-.28.16a.88.88,0,0,1-.43-.09l-.06,0-.07.38a1.59,1.59,0,0,0,.52.1c.49,0,.8-.23.81-.59,0-.19-.13-.34-.39-.46s-.26-.13-.26-.21.08-.14.26-.14a.85.85,0,0,1,.35.06l0,0,.06-.37Z" transform="translate(-570.49 -395.56)"/><path class="cls-9" d="M607.53,427.86h-.36a.23.23,0,0,0-.24.14l-.69,1.56h.49s.08-.21.1-.25h.59l.05.25h.43l-.37-1.7ZM607,429l.18-.48.07-.16,0,.15.1.49Z" transform="translate(-570.49 -395.56)"/><path class="cls-9" d="M603.81,427.86l-.45,1.16-.05-.23a1.32,1.32,0,0,0-.64-.72l.42,1.49h.48l.73-1.7Z" transform="translate(-570.49 -395.56)"/><path class="cls-9" d="M602.94,427.86h-.75v0a1.52,1.52,0,0,1,1.12.89l-.16-.78c0-.11-.11-.14-.21-.15Z" transform="translate(-570.49 -395.56)"/></svg>