<?xml version="1.0" encoding="utf-8"?>
<!-- Generator: Adobe Illustrator 22.1.0, SVG Export Plug-In . SVG Version: 6.00 Build 0)  -->
<svg version="1.1" id="Layer_1" xmlns="http://www.w3.org/2000/svg" xmlns:xlink="http://www.w3.org/1999/xlink" x="0px" y="0px"
	 viewBox="0 0 130 130" style="enable-background:new 0 0 130 130;" xml:space="preserve">
<style type="text/css">
	.st0{fill:#ECEFF0;}
	.st1{fill:#AFBDC4;}
	.st2{fill:#EE4338;}
	.st3{fill:#EB6575;}
	.st4{fill:#FFFFFF;}
	.st5{fill:#ECEEEE;}
	.st6{fill:#37474F;}
	.st7{fill:#808080;}
	.st8{opacity:0.1;enable-background:new    ;}
</style>
<g>
	<g>
		<path class="st0" d="M65,130c35.9,0,65-29.1,65-65S100.9,0,65,0S0,29.1,0,65S29.1,130,65,130z"/>
		<path class="st1" d="M127.4,83.3H2.6c7.9,27,32.8,46.7,62.4,46.7S119.4,110.3,127.4,83.3z"/>
	</g>
	<g>
		<g>
			<g>
				<g>
					<g>
						<path class="st2" d="M45.9,59.4l10.7-0.2l8.4-0.2c2.8-0.1,5.5-0.9,7.7-2.4l0,0c1.9-1.2,1.8-3.7-0.1-4.9l0,0
							c-2.3-1.4-5-2.1-7.8-2l-8.4,0.2l-10.7,0.2l-7.3,0.2c-1.4,0-2.9,0.2-4.3,0.4c0,0-0.1,0-0.1,0l-3.4,0.6l0.2,7.4l3.3,0.5
							c0.1,0,0.1,0,0.2,0c1.5,0.2,2.9,0.3,4.4,0.3L45.9,59.4L45.9,59.4z"/>
						<path class="st3" d="M26.6,57.6c0-0.1-0.1-0.2-0.1-0.2C26.5,57.4,26.5,57.5,26.6,57.6z"/>
						<path class="st3" d="M26.7,57.7c0.2,0.2,0.4,0.4,0.6,0.5C27,58.1,26.8,57.9,26.7,57.7z"/>
						<path class="st3" d="M27.3,58.2c0.1,0,0.1,0,0.2,0.1c0.1,0,0.1,0,0.2,0C27.5,58.3,27.4,58.2,27.3,58.2z"/>
					</g>
					<polygon class="st4" points="64,49.3 64.2,59.2 70.8,57.5 74.2,54.2 70.9,50.5 					"/>
					<g>
						<path class="st4" d="M30.8,58.8L30.8,58.8l-3.1-0.5c-0.1,0-0.1,0-0.2,0l-0.8,8.4c-0.1,0.6,0.4,1.1,1,1.1l1.1,0
							c0.8,0,1.4-0.5,1.8-1.1l3.7-7.4c-0.1,0-0.1,0-0.2,0L30.8,58.8z"/>
						<path class="st4" d="M30.6,51.3L30.6,51.3l3.4-0.6c0,0,0.1,0,0.1,0l-4-7.2c-0.4-0.7-1.1-1.1-1.8-1.1l-1.1,0
							c-0.6,0-1.1,0.5-1,1.1l1.1,8.3c0.1,0,0.2,0,0.2-0.1L30.6,51.3z"/>
					</g>
					<polygon class="st2" points="27,67.6 26.9,64.2 30.5,65 30.5,67.6 					"/>
					<polygon class="st2" points="26.4,43 26.5,46.4 30,45.5 30,42.9 					"/>
					<g>
						<path class="st2" d="M52.7,38.5c0.7,0,1.3-0.5,1.2-1.2l0-2.1c0-0.7-0.6-1.2-1.3-1.2l-4.9,0.5l2.2,3.9L52.7,38.5z"/>
						<path class="st2" d="M53.5,75.1c0.7,0,1.3-0.5,1.2-1.2l0-2.1c0-0.7-0.6-1.2-1.3-1.2l-2.8,0.3l-2,3.9L53.5,75.1z"/>
					</g>
					<g>
						<path class="st4" d="M49.9,38.3l-2.2-3.9l-1.1-1.9C46,31.6,45,31,43.9,31l-3.2,0.1c-0.4,0-0.7,0.4-0.5,0.8l5.5,18.3l10.7-0.2
							L49.9,38.3z"/>
						<path class="st4" d="M41.2,77.9c-0.1,0.4,0.2,0.7,0.6,0.7l3.2-0.1c1.1,0,2.1-0.7,2.6-1.6l1-2l2-3.9l6-11.8l-10.7,0.2
							L41.2,77.9z"/>
					</g>
					<path class="st5" d="M27.7,58.3l3.1,0.5l0,0l-0.2-7.4l0,0l-3.1,0.6c-0.1,0-0.2,0-0.2,0.1c-0.1,0-0.3,0.1-0.4,0.2
						c-0.4,0.3-0.6,0.8-0.6,1.3l0.1,3.3c0,0.2,0,0.4,0.1,0.5c0,0.1,0.1,0.2,0.1,0.2c0,0,0,0.1,0.1,0.1c0.2,0.2,0.4,0.4,0.6,0.5
						C27.4,58.2,27.5,58.3,27.7,58.3z"/>
					<path class="st6" d="M43.9,30l-3.2,0.1c-0.5,0-0.9,0.2-1.2,0.6c-0.2,0.3-0.3,0.6-0.3,0.9c0,0.1,0,0.3,0.1,0.4l5.1,17l-6,0.1
						c-1.3,0-2.5,0.1-3.7,0.3L31,43.1c-0.5-1-1.6-1.6-2.7-1.6l-1.1,0c-0.6,0-1.1,0.3-1.5,0.7c-0.4,0.4-0.5,1-0.5,1.6l1,7.7
						c-0.6,0.5-1,1.2-0.9,2l0.1,3.3c0,0.8,0.4,1.5,1,2l-0.7,7.8c0,0.1,0,0.1,0,0.2c0,0.5,0.2,1,0.5,1.3c0.4,0.4,0.9,0.6,1.5,0.6
						l1.1,0c1.1,0,2.1-0.7,2.6-1.7l0,0l3.4-6.7c1.3,0.1,2.6,0.2,3.9,0.2l5.9-0.1l-4.4,17.2c0,0.1-0.1,0.3,0,0.4
						c0,0.3,0.1,0.7,0.3,0.9c0.3,0.4,0.8,0.6,1.3,0.6l3.2-0.1c1.5,0,2.8-0.9,3.4-2.2l0.7-1.4l4.3,0.2c0.6,0,1.2-0.2,1.6-0.6
						c0.4-0.4,0.7-1,0.7-1.6l0-2.1c0-0.6-0.3-1.2-0.7-1.6c-0.4-0.4-1-0.6-1.6-0.5l-1.1,0.1l4.9-9.7l7.8-0.2c3-0.1,5.8-0.9,8.2-2.5
						c1.1-0.8,1.8-2,1.8-3.3c0-1.3-0.8-2.5-1.9-3.2c-2.5-1.5-5.4-2.2-8.3-2.2L57,48.9l-5.4-9.5l1.1,0.1c0.6,0,1.2-0.2,1.6-0.6
						c0.4-0.4,0.7-1,0.7-1.6l0-2.1c0-0.6-0.3-1.2-0.7-1.6c-0.4-0.4-1-0.6-1.6-0.5l-4.3,0.4L47.4,32C46.7,30.8,45.4,30,43.9,30z
						 M53.5,71.6c0.1,0,0.1,0,0.2,0.1c0,0,0.1,0.1,0.1,0.2l0,2.1c0,0.1,0,0.1-0.1,0.2c0,0-0.1,0.1-0.2,0.1L50.1,74l1.1-2.1
						L53.5,71.6z M55,60.1l-2,3.8l-3.9,0.1c-0.5,0-1,0.5-0.9,1s0.5,1,1,0.9l2.9-0.1L50,70l-1,2l-0.6,1.2l-1.3,2.5l-0.4,0.7
						c-0.3,0.7-1,1.1-1.8,1.1l-2.7,0.1l4.4-17.3L55,60.1L55,60.1z M27.3,56.8l-0.1-3.3c0-0.3,0.2-0.5,0.5-0.6l0.7-0.1l1.3-0.2
						l0.1,5.1l-1.3-0.2l-0.7-0.1C27.5,57.3,27.3,57.1,27.3,56.8z M29.8,66.2L29.8,66.2c-0.2,0.4-0.5,0.6-0.9,0.6l-1.1,0c0,0,0,0,0,0
						c0,0,0,0,0,0l0.7-7.4l2.3,0.3c0,0,0,0,0,0l2.2,0.3L29.8,66.2z M45.7,51.1l10.7-0.2l8.4-0.2c2.6-0.1,5.1,0.6,7.3,1.9
						c0.6,0.4,1,0.9,1,1.6c0,0.6-0.3,1.2-0.9,1.6c-2.1,1.4-4.6,2.2-7.2,2.2l-8.4,0.2l-10.7,0.2l-7.2,0.2c-1,0-1.9,0-2.9-0.1
						c-0.5,0-1-0.1-1.6-0.2l-0.5-0.1l-2-0.3l-0.1-5.8l2-0.4l0.6-0.1c0.5-0.1,1-0.2,1.4-0.2c0.9-0.1,1.9-0.2,2.8-0.2L45.7,51.1
						L45.7,51.1z M30.4,50.4C30.4,50.4,30.4,50.4,30.4,50.4l-2.3,0.4l-1-7.3c0,0,0,0,0,0c0,0,0,0,0,0l1.1,0c0.4,0,0.8,0.2,1,0.6
						l3.3,6L30.4,50.4z M52.7,35c0.1,0,0.1,0,0.2,0.1c0,0,0.1,0.1,0.1,0.2l0,2.1c0,0.1,0,0.1-0.1,0.2c0,0-0.1,0.1-0.2,0.1l-2.3-0.1
						l-1.2-2.1L52.7,35z M45.7,33l0.4,0.7l1.4,2.4l0.7,1.2l1.1,2l2.3,4l-2.9,0.1c-0.5,0-1,0.5-0.9,1c0,0.5,0.5,1,1,0.9l3.9-0.1
						l2.1,3.7l-8.3,0.2L41.3,32l2.7-0.1C44.7,32,45.4,32.4,45.7,33z"/>
					<path class="st6" d="M66.7,53l0.8,1.2l-0.7,1.3c-0.1,0.2-0.1,0.3-0.1,0.5c0,0.3,0.2,0.6,0.5,0.8c0.5,0.3,1.1,0.1,1.3-0.4l1-1.8
						c0.2-0.3,0.2-0.7,0-1L68.4,52c-0.3-0.5-0.9-0.6-1.3-0.3C66.6,52,66.4,52.6,66.7,53z"/>
				</g>
			</g>
			<g>
				<g>
					<path class="st4" d="M64.7,68h15.7v33.5H64.7c-0.4,0-0.8-0.4-0.8-0.8V68.8C63.9,68.3,64.2,68,64.7,68z"/>
				</g>
				<path class="st7" d="M80.4,100.7c0,0.4,0.4,0.8,0.8,0.8h21.6c0.4,0,0.8-0.4,0.8-0.8V57.9c0-0.4-0.4-0.8-0.8-0.8H81.2
					c-0.4,0-0.8,0.4-0.8,0.8L80.4,100.7L80.4,100.7z"/>
				<path class="st4" d="M80.4,100.7c0,0.4,0.4,0.8,0.8,0.8h21.6c0.4,0,0.8-0.4,0.8-0.8V57.9c0-0.4-0.4-0.8-0.8-0.8H81.2
					c-0.4,0-0.8,0.4-0.8,0.8L80.4,100.7L80.4,100.7z"/>
				<path class="st8" d="M100.3,100.7V57.9c0-0.4-0.4-0.8-0.8-0.8h3.3c0.4,0,0.8,0.4,0.8,0.8v42.8c0,0.4-0.4,0.8-0.8,0.8h-3.3
					C100,101.5,100.3,101.1,100.3,100.7z"/>
				<path class="st2" d="M86.2,100.7c0,0.4,0.4,0.8,0.8,0.8h10c0.4,0,0.8-0.4,0.8-0.8V87.5c0-0.4-0.4-0.8-0.8-0.8H87
					c-0.4,0-0.8,0.4-0.8,0.8V100.7z"/>
				<g>
					<rect x="95.8" y="62.6" class="st2" width="3.6" height="3.6"/>
					<rect x="90.2" y="62.6" class="st2" width="3.6" height="3.6"/>
					<rect x="84.6" y="62.6" class="st2" width="3.6" height="3.6"/>
					<rect x="95.8" y="68.1" class="st2" width="3.6" height="3.6"/>
					<rect x="90.2" y="68.1" class="st2" width="3.6" height="3.6"/>
				</g>
				<g>
					<rect x="84.6" y="68.1" class="st4" width="3.6" height="3.6"/>
					<rect x="95.8" y="73.7" class="st4" width="3.6" height="3.6"/>
				</g>
				<g>
					<rect x="90.2" y="73.7" class="st2" width="3.6" height="3.6"/>
					<rect x="84.6" y="73.7" class="st2" width="3.6" height="3.6"/>
				</g>
				<g>
					<rect x="67.5" y="71.8" class="st2" width="7.7" height="7.6"/>
				</g>
				<g>
					<rect x="67.7" y="82.5" class="st2" width="3.6" height="3.6"/>
				</g>
				<path d="M75.2,99.1c-0.7,0-1.2-0.5-1.2-1.2v-6.1c0-0.7,0.5-1.2,1.2-1.2s1.2,0.5,1.2,1.2v6.1C76.4,98.5,75.9,99.1,75.2,99.1z"/>
				<path d="M69.4,99.1c-0.7,0-1.2-0.5-1.2-1.2v-6.1c0-0.7,0.5-1.2,1.2-1.2s1.2,0.5,1.2,1.2v6.1C70.6,98.5,70.1,99.1,69.4,99.1z"/>
				<path class="st6" d="M104.8,101.4c0-6.6,0-34.6,0-34.6v-8.9c0-1.1-0.9-2-2-2h-13c-0.7,0-1.2,0.5-1.2,1.2c0,0.7,0.5,1.2,1.2,1.2
					h12.6v42H99V87.5c0-1.1-0.9-2-2-2H87c-1.1,0-2,0.9-2,2v12.8h-3.4v-42h3.3c0.7,0,1.2-0.5,1.2-1.2s-0.5-1.2-1.2-1.2h-3.7
					c-1.1,0-2,0.9-2,2v8.9H64.7c-1.1,0-2,0.9-2,2v31.9c0,1.1,0.9,2,2,2h38.9C104.2,102.6,104.8,102.1,104.8,101.4z M104.8,100.3
					V69.1 M87.4,87.9h3.4V91c0,0.7,0.5,1.2,1.2,1.2c0.7,0,1.2-0.5,1.2-1.2v-3.1h3.4v12.4h-3.4v-5.3c0-0.7-0.5-1.2-1.2-1.2
					c-0.7,0-1.2,0.5-1.2,1.2v5.3h-3.4V87.9z M65.1,100.3V69.1h14.1v31.1H65.1L65.1,100.3z"/>
			</g>
		</g>
		<g>
			<rect x="70" y="74.9" class="st4" width="2.8" height="1.2"/>
			<path class="st4" d="M70,78.1c-0.3,0-0.6-0.3-0.6-0.6v-3.9c0-0.3,0.3-0.6,0.6-0.6c0.3,0,0.6,0.3,0.6,0.6v3.9
				C70.6,77.8,70.3,78.1,70,78.1z"/>
			<path class="st4" d="M72.8,78.1c-0.3,0-0.6-0.3-0.6-0.6v-3.9c0-0.3,0.3-0.6,0.6-0.6c0.3,0,0.6,0.3,0.6,0.6v3.9
				C73.4,77.8,73.1,78.1,72.8,78.1z"/>
		</g>
	</g>
</g>
</svg>
