<svg xmlns="http://www.w3.org/2000/svg" viewBox="0 0 50 50"><defs><style>.cls-1{fill:#edeff0;}.cls-2{fill:#b0bec5;}.cls-3{fill:#ffdb57;}.cls-4{fill:#ef4438;}.cls-5{fill:#db2f37;}.cls-6{fill:#f4ba3b;}.cls-7{fill:#384850;}.cls-8{fill:#f6e2ce;}</style></defs><title>Asset 3</title><g id="Layer_2" data-name="Layer 2"><g id="Layer_1-2" data-name="Layer 1"><path class="cls-1" d="M25,50A25,25,0,1,0,0,25,25,25,0,0,0,25,50Z"/><path class="cls-2" d="M49,32H1a25,25,0,0,0,48,0Z"/><path class="cls-3" d="M23.15,17.29c-2.18-2.41-5.53-5.68-6.71-4.49-1.82,1.83-3.73,6.8,0,6.8h6.71Z"/><path class="cls-3" d="M26.81,17.29c2.17-2.41,5.52-5.68,6.71-4.49,1.82,1.83,3.73,6.8,0,6.8H26.81Z"/><rect class="cls-4" x="13.47" y="23.91" width="23.02" height="13.54"/><rect class="cls-5" x="13.47" y="23.91" width="23.02" height="1.75"/><rect class="cls-4" x="11.59" y="19.6" width="26.77" height="4.31"/><rect class="cls-3" x="22.06" y="19.6" width="5.83" height="4.31"/><rect class="cls-3" x="22.75" y="23.91" width="4.46" height="13.54"/><rect class="cls-6" x="22.75" y="23.91" width="4.46" height="1.74"/><path class="cls-1" d="M17.11,16.31c-1.65-.75-2.33-.45-2.62,0-.47,1.71-.17,3.31,2,3.31h5A10.48,10.48,0,0,0,17.11,16.31Z"/><path class="cls-1" d="M32.85,16.31c1.64-.75,2.33-.45,2.62,0,.46,1.71.16,3.31-1.95,3.31h-5A10.39,10.39,0,0,1,32.85,16.31Z"/><rect class="cls-6" x="23.15" y="16.86" width="3.66" height="2.74"/><path class="cls-7" d="M35.64,15.41a9,9,0,0,0-1.81-2.91,1.33,1.33,0,0,0-1-.39c-1.24,0-3.2,1.49-5.85,4.35a.47.47,0,0,0-.17,0H23.15a.47.47,0,0,0-.17,0c-2.65-2.86-4.62-4.32-5.85-4.35a1.33,1.33,0,0,0-1,.39,8.79,8.79,0,0,0-1.81,2.91c-.1.26-.18.51-.25.76,0,0-.68,2.13.27,3H12a.8.8,0,0,0-.8.8v3.58a.8.8,0,0,0,.8.8h.71a.36.36,0,0,1,.36.36v1.58a.44.44,0,0,0,.88,0V24.71a.36.36,0,0,1,.36-.36h8v5.14a.44.44,0,1,0,.88,0V24.71a.36.36,0,0,1,.36-.36h2.86a.36.36,0,0,1,.36.36V36.65a.36.36,0,0,1-.36.36H23.55a.36.36,0,0,1-.36-.36V31.24a.44.44,0,0,0-.88,0v5.41A.36.36,0,0,1,22,37H14.27a.36.36,0,0,1-.36-.36V28A.44.44,0,1,0,13,28v9.05a.8.8,0,0,0,.8.8H36.12a.8.8,0,0,0,.8-.8v-2a.43.43,0,0,0-.43-.43.44.44,0,0,0-.44.43v1.58a.36.36,0,0,1-.36.36H28a.36.36,0,0,1-.36-.36V24.35h8a.36.36,0,0,1,.36.36v8.62a.44.44,0,0,0,.44.43.43.43,0,0,0,.43-.43V24.71a.37.37,0,0,1,.37-.36H38a.8.8,0,0,0,.8-.8V20a.8.8,0,0,0-.8-.8H35.62S37.07,18.57,35.64,15.41Zm-2.12,3.76H30.39a.36.36,0,0,1-.24-.64A12.08,12.08,0,0,1,33,16.7c.91-.41,1.6-.52,1.93-.31a.36.36,0,0,1,.13.21S36.21,19.24,33.52,19.17ZM24,17.3H26a.36.36,0,0,1,.36.36V18.8a.37.37,0,0,1-.36.37H24a.37.37,0,0,1-.36-.37V17.66A.36.36,0,0,1,24,17.3Zm-9.08-.7a.32.32,0,0,1,.13-.21c.33-.21,1-.1,1.93.31a12.08,12.08,0,0,1,2.88,1.83.37.37,0,0,1-.24.64H16.44C14.06,19.23,14.87,16.6,14.87,16.6Zm6.76,6.51a.37.37,0,0,1-.37.36H12.39a.36.36,0,0,1-.36-.36V20.4a.36.36,0,0,1,.36-.36h8.87a.37.37,0,0,1,.37.36Zm0-3.94a11.31,11.31,0,0,0-4.34-3.26,5.82,5.82,0,0,0-1.52-.47.35.35,0,0,1-.27-.52,7.32,7.32,0,0,1,1.25-1.81.43.43,0,0,1,.34-.12h0c1,0,3,1.61,5.51,4.36a.38.38,0,0,1,.09.25v1.57Zm5.83,4.3h-5V20.4a.36.36,0,0,1,.36-.36H27.1a.36.36,0,0,1,.36.36Zm-.22-4.3V17.6a.39.39,0,0,1,.1-.25C29.86,14.6,31.86,13,32.85,13a.44.44,0,0,1,.36.12,7.32,7.32,0,0,1,1.25,1.81.35.35,0,0,1-.27.52,5.82,5.82,0,0,0-1.52.47A11.61,11.61,0,0,0,28.44,19a.37.37,0,0,1-.29.14Zm10.69,3.94a.37.37,0,0,1-.37.36H28.69a.36.36,0,0,1-.36-.36V20.4a.36.36,0,0,1,.36-.36h8.87a.37.37,0,0,1,.37.36Z"/><path class="cls-8" d="M29.23,29c.12,1.12-.45,2-1.49,3-.72.69-1.66,1.43-2.74,2.37C22.34,32,20.57,30.87,20.77,29a2.2,2.2,0,0,1,2.06-2c1.65,0,2.17,1.83,2.17,1.83s.52-1.88,2.18-1.83a2.19,2.19,0,0,1,2.05,2Z"/><path class="cls-7" d="M22.77,26.51H22.7A2.72,2.72,0,0,0,20.14,29c-.24,2.22,1.72,3.48,4.48,5.87a.47.47,0,0,0,.31.12.47.47,0,0,0,.32-.12C28,32.53,30,31.23,29.73,29a2.73,2.73,0,0,0-2.56-2.49,2.61,2.61,0,0,0-2.24,1.24,2.61,2.61,0,0,0-2.16-1.24Zm2.16,2.85A.49.49,0,0,0,25.4,29s.44-1.52,1.7-1.52h0a1.78,1.78,0,0,1,1.63,1.63c.16,1.57-1.34,2.61-3.84,4.75-2.43-2.08-4-3.17-3.83-4.76a1.77,1.77,0,0,1,1.62-1.62h.05c1.25,0,1.68,1.46,1.7,1.52a.48.48,0,0,0,.46.36Z"/></g></g></svg>