<svg xmlns="http://www.w3.org/2000/svg" viewBox="0 0 50 50"><defs><style>.cls-1{fill:#edeff0;}.cls-2{fill:#b0bec5;}.cls-3{fill:#ef4438;}.cls-4{fill:#fff;}.cls-5{fill:#37474f;}.cls-6{fill:#f37121;}</style></defs><title>home-icon-hotels-sale-id</title><g id="Layer_2" data-name="Layer 2"><g id="Layer_1-2" data-name="Layer 1"><path class="cls-1" d="M25,50A25,25,0,1,0,0,25,25,25,0,0,0,25,50Z"/><path class="cls-2" d="M49,32H1a25,25,0,0,0,48,0Z"/><rect class="cls-3" x="14.64" y="27.98" width="20.96" height="7.55"/><path class="cls-4" d="M12.94,17.24h0a1.82,1.82,0,0,1,1.82,1.82V38.53a0,0,0,0,1,0,0H11.12a0,0,0,0,1,0,0V19.07A1.82,1.82,0,0,1,12.94,17.24Z"/><path class="cls-4" d="M37.16,26.23h0A1.82,1.82,0,0,1,39,28.05V38.53a0,0,0,0,1,0,0H35.34a0,0,0,0,1,0,0V28.05a1.82,1.82,0,0,1,1.82-1.82Z"/><path class="cls-4" d="M21.38,24.85H32.89a2.71,2.71,0,0,1,2.71,2.71v3.93a0,0,0,0,1,0,0H18.67a0,0,0,0,1,0,0V27.56A2.71,2.71,0,0,1,21.38,24.85Z"/><path class="cls-5" d="M36.94,25.88a2,2,0,0,0-1.07.31,2.61,2.61,0,0,0-2.45-1.74H20.48a2.59,2.59,0,0,0-1.65.6,2.52,2.52,0,0,0-3.78-1.19v-5a2,2,0,0,0-4,0V38.37a.55.55,0,0,0,.55.55h2.95a.55.55,0,0,0,.54-.55V36H23a.55.55,0,0,0,.54-.55.54.54,0,0,0-.54-.54H15.05V28.44h2.84v2.63a1.23,1.23,0,0,0,.65,1.08,1.22,1.22,0,0,0,1.26,0h0a1.38,1.38,0,0,1,1.5,0l0,0a2.51,2.51,0,0,0,2.69,0l0,0a1.38,1.38,0,0,1,1.5,0l0,0a2.5,2.5,0,0,0,2.68,0l0,0a1.4,1.4,0,0,1,1.51,0l0,0a2.49,2.49,0,0,0,1.34.39,2.51,2.51,0,0,0,1.34-.39l0,0a1.38,1.38,0,0,1,1.5,0l0,0a1.2,1.2,0,0,0,.8.19v2.58H27a.55.55,0,0,0-.55.54A.55.55,0,0,0,27,36h7.89v2.4a.55.55,0,0,0,.55.55h3a.55.55,0,0,0,.54-.55V27.9A2,2,0,0,0,36.94,25.88ZM16.47,24.51a1.42,1.42,0,1,1-1.42,1.42A1.42,1.42,0,0,1,16.47,24.51ZM14,37.82H12.11V18.88a.93.93,0,0,1,1.85,0V37.82ZM34.85,31.2a.14.14,0,0,1-.15,0l0,0a2.48,2.48,0,0,0-2.68,0l0,0a1.4,1.4,0,0,1-1.5,0l-.05,0a2.48,2.48,0,0,0-2.68,0l0,0a1.4,1.4,0,0,1-1.5,0l0,0a2.51,2.51,0,0,0-1.34-.39,2.39,2.39,0,0,0-1.34.4l0,0a1.4,1.4,0,0,1-1.5,0l0,0a2.48,2.48,0,0,0-2.68,0h0a.12.12,0,0,1-.14,0,.12.12,0,0,1-.08-.12V27a1.51,1.51,0,0,1,1.5-1.5H33.42a1.5,1.5,0,0,1,1.5,1.5v0H29.49a.55.55,0,0,0-.55.55.54.54,0,0,0,.55.54h5.43v2.91A.15.15,0,0,1,34.85,31.2Zm3,6.62H36V27.9a.93.93,0,0,1,1.86,0Z"/><path class="cls-5" d="M25,34.88a.55.55,0,0,0-.39.16.55.55,0,0,0-.16.38A.55.55,0,0,0,25,36a.55.55,0,0,0,.38-.16.51.51,0,0,0,.16-.39.51.51,0,0,0-.16-.38A.55.55,0,0,0,25,34.88Z"/><path class="cls-5" d="M27.63,15h1.63l-2,2a.56.56,0,0,0-.12.6.57.57,0,0,0,.51.34h2.94a.55.55,0,0,0,0-1.1H28.94l2-2a.54.54,0,0,0-.39-.93H27.63a.55.55,0,0,0-.55.54A.55.55,0,0,0,27.63,15Z"/><path class="cls-5" d="M22.8,18h.87l-1.25,1.25a.54.54,0,0,0,.38.93H25a.55.55,0,0,0,.54-.55.54.54,0,0,0-.54-.54h-.87l1.25-1.25a.54.54,0,0,0,.12-.6.54.54,0,0,0-.5-.34H22.8a.55.55,0,0,0,0,1.1Z"/><path class="cls-5" d="M18.67,20.36h.43l-.81.81a.54.54,0,0,0,.38.93h1.75a.55.55,0,0,0,.55-.54.55.55,0,0,0-.55-.55H20l.82-.81a.55.55,0,0,0,.11-.6.54.54,0,0,0-.5-.33H18.67a.54.54,0,0,0-.54.54A.55.55,0,0,0,18.67,20.36Z"/><path class="cls-5" d="M27.63,27.07a.55.55,0,0,0-.55.55.55.55,0,0,0,.16.38.55.55,0,0,0,.39.16.55.55,0,0,0,.54-.54.55.55,0,0,0-.16-.39A.55.55,0,0,0,27.63,27.07Z"/><circle class="cls-4" cx="16.54" cy="25.88" r="1.71"/><rect class="cls-6" x="22.73" y="1.57" width="27.27" height="9.86" rx="2.06"/><path class="cls-4" d="M26.86,5.1a.31.31,0,0,1,.32-.31h1.07A1.18,1.18,0,0,1,29.58,6h0a1.24,1.24,0,0,1-1.4,1.2h-.7V8a.3.3,0,0,1-.3.3.31.31,0,0,1-.32-.3ZM28.2,6.62c.46,0,.75-.26.75-.63h0c0-.41-.29-.63-.75-.63h-.72V6.62Z"/><path class="cls-4" d="M30,5.93a.3.3,0,0,1,.3-.31.31.31,0,0,1,.31.31V6.2a.84.84,0,0,1,.66-.58.28.28,0,0,1,.3.3.28.28,0,0,1-.24.29c-.43.08-.72.41-.72,1V8a.3.3,0,0,1-.31.3A.29.29,0,0,1,30,8Z"/><path class="cls-4" d="M31.72,7h0A1.38,1.38,0,0,1,33.13,5.6,1.36,1.36,0,0,1,34.53,7h0a1.38,1.38,0,0,1-1.41,1.38A1.37,1.37,0,0,1,31.72,7Zm2.21,0h0a.82.82,0,0,0-.81-.85.79.79,0,0,0-.8.84h0a.82.82,0,0,0,.81.85A.79.79,0,0,0,33.93,7Z"/><path class="cls-4" d="M35,5.93a.3.3,0,0,1,.3-.31.31.31,0,0,1,.31.31v.12a1,1,0,0,1,.8-.45.83.83,0,0,1,.79.46,1.06,1.06,0,0,1,.89-.46.89.89,0,0,1,.93,1V8a.29.29,0,0,1-.3.3.3.3,0,0,1-.31-.3V6.8c0-.42-.19-.65-.53-.65s-.57.23-.57.66V8a.3.3,0,0,1-.6,0V6.79c0-.41-.2-.64-.54-.64s-.56.25-.56.66V8a.3.3,0,0,1-.31.3A.29.29,0,0,1,35,8Z"/><path class="cls-4" d="M39.5,7h0a1.41,1.41,0,0,1,2.82,0h0A1.39,1.39,0,0,1,40.9,8.36,1.37,1.37,0,0,1,39.5,7Zm2.21,0h0a.82.82,0,0,0-.81-.85.8.8,0,0,0-.8.84h0a.82.82,0,0,0,.81.85A.79.79,0,0,0,41.71,7Z"/><path class="cls-4" d="M42.7,8a.23.23,0,0,1-.11-.21.24.24,0,0,1,.24-.24.25.25,0,0,1,.13,0,1.45,1.45,0,0,0,.77.26c.26,0,.41-.11.41-.29h0c0-.2-.28-.27-.59-.37s-.83-.27-.83-.78h0a.84.84,0,0,1,.94-.81,1.86,1.86,0,0,1,.83.21.26.26,0,0,1,.15.23.25.25,0,0,1-.25.25.24.24,0,0,1-.12,0,1.48,1.48,0,0,0-.62-.18c-.24,0-.38.11-.38.26h0c0,.2.29.28.6.38s.82.29.82.77h0c0,.55-.43.83-1,.83A1.85,1.85,0,0,1,42.7,8Z"/><path class="cls-4" d="M45.17,4.94c0-.18.15-.29.35-.29s.34.11.34.29V5a.31.31,0,0,1-.34.3.31.31,0,0,1-.35-.3Zm0,1a.3.3,0,0,1,.3-.31.31.31,0,0,1,.31.31V8a.3.3,0,0,1-.31.3.29.29,0,0,1-.3-.3Z"/></g></g></svg>