<?xml version="1.0" encoding="utf-8"?>
<!-- Generator: Adobe Illustrator 22.1.0, SVG Export Plug-In . SVG Version: 6.00 Build 0)  -->
<svg version="1.1" id="Layer_1" xmlns="http://www.w3.org/2000/svg" xmlns:xlink="http://www.w3.org/1999/xlink" x="0px" y="0px"
	 viewBox="0 0 130 130" style="enable-background:new 0 0 130 130;" xml:space="preserve">
<style type="text/css">
	.st0{fill:#ECEFF0;}
	.st1{fill:#AFBDC4;}
	.st2{fill:#EE4338;}
	.st3{fill:#FFFFFF;}
	.st4{fill:#37474F;}
</style>
<path class="st0" d="M65,130c35.9,0,65-29.1,65-65S100.9,0,65,0S0,29.1,0,65S29.1,130,65,130z"/>
<path class="st1" d="M127.4,83.3H2.6c7.9,27,32.8,46.7,62.4,46.7S119.4,110.3,127.4,83.3z"/>
<path class="st2" d="M50.8,81.7h34.6c1.3,0,2.4-0.9,2.7-2.1L95,53.9c0.2-0.8,0-1.7-0.5-2.4c-0.5-0.7-1.3-1.1-2.2-1.1H47.8L50.8,81.7
	z"/>
<path class="st3" d="M51.4,88l-4.9-48.2c-0.2-1.7-1.6-3-3.3-3H32.2c-1.7,0-3.1,1.4-3.1,3.1c0,1.7,1.4,3.1,3.1,3.1h7.9l5.2,51.2h42.3
	V88L51.4,88z"/>
<path class="st3" d="M93.9,93.8c0-2.3-1.4-4.4-3.5-5.3c-2.1-0.9-4.6-0.4-6.3,1.2c-1.6,1.6-2.1,4.1-1.2,6.3c0.9,2.1,3,3.5,5.3,3.5
	C91.3,99.5,93.9,96.9,93.9,93.8z M48.1,99.5c-2.3,0-4.4-1.4-5.3-3.5c-0.9-2.1-0.4-4.6,1.2-6.3c1.6-1.6,4.1-2.1,6.3-1.2
	c2.1,0.9,3.5,3,3.5,5.3C53.8,96.9,51.2,99.5,48.1,99.5z"/>
<path class="st4" d="M45.6,83.7l-4.1-40.7c-0.1-0.7-0.7-1.3-1.4-1.3h-7.9c-2.3,0-2.3-3.5,0-3.5h11.1c1,0,1.8,0.7,1.9,1.7l2,19.5
	c0.1,0.8,0.8,1.3,1.5,1.2c0.8-0.1,1.3-0.8,1.3-1.5l-2-19.5c-0.2-2.4-2.3-4.2-4.7-4.2H32.2c-2.5,0-4.5,2-4.5,4.5c0,2.5,2,4.5,4.5,4.5
	h6.7l4,39.5c0.1,0.8,0.8,1.3,1.5,1.2C45.2,85.1,45.7,84.5,45.6,83.7z"/>
<path class="st4" d="M52.8,51.8h27c0.8,0,1.4-0.6,1.4-1.4S80.5,49,79.8,49h-27c-0.8,0-1.4,0.6-1.4,1.4S52,51.8,52.8,51.8z"/>
<path class="st4" d="M92.3,49H84c-0.8,0-1.4,0.6-1.4,1.4s0.6,1.4,1.4,1.4h8.4c0.4,0,0.8,0.2,1.1,0.5c0.3,0.3,0.4,0.8,0.2,1.2
	l-6.9,25.8c-0.2,0.6-0.7,1-1.3,1h-7.8c-0.8,0-1.4,0.6-1.4,1.4c0,0.8,0.6,1.4,1.4,1.4h7.8c1.9,0,3.6-1.3,4-3.1l6.9-25.8
	c0.3-1.3,0.1-2.6-0.7-3.6S93.6,49,92.3,49z"/>
<path class="st4" d="M48.1,98.1c-1.8,0-3.3-1.1-4-2.7s-0.3-3.5,0.9-4.7c1.2-1.2,3.1-1.6,4.7-0.9c1.6,0.7,2.7,2.3,2.7,4
	C52.4,96.2,50.5,98.1,48.1,98.1z M70.2,92.9h-15c-0.2-1.7-1-3.2-2.3-4.4l-0.5-5.4H73c0.8,0,1.4-0.6,1.4-1.4c0-0.8-0.6-1.4-1.4-1.4
	H52.1l-1.7-16.7c-0.1-0.8-0.8-1.3-1.5-1.2c-0.8,0.1-1.3,0.8-1.3,1.5l2.3,23c-3.8-1-7.7,1.2-8.7,5c-1,3.8,1.2,7.7,5,8.7
	c3.8,1,7.7-1.2,8.8-5h15.2c0.8,0,1.4-0.6,1.4-1.4C71.6,93.5,70.9,92.9,70.2,92.9z"/>
<path class="st4" d="M58.4,59.3v13.2c0,0.8,0.6,1.4,1.4,1.4s1.4-0.6,1.4-1.4V59.3c0-0.8-0.6-1.4-1.4-1.4S58.4,58.6,58.4,59.3z"/>
<path class="st4" d="M68,59.3v13.2c0,0.8,0.6,1.4,1.4,1.4c0.8,0,1.4-0.6,1.4-1.4V59.3c0-0.8-0.6-1.4-1.4-1.4
	C68.6,57.9,68,58.6,68,59.3z"/>
<path class="st4" d="M77.5,59.3v13.2c0,0.8,0.6,1.4,1.4,1.4c0.8,0,1.4-0.6,1.4-1.4V59.3c0-0.8-0.6-1.4-1.4-1.4
	C78.2,57.9,77.6,58.6,77.5,59.3z"/>
<path class="st4" d="M88.1,98.1c-1.8,0-3.3-1.1-4-2.7c-0.7-1.6-0.3-3.5,0.9-4.7s3.1-1.6,4.7-0.9c1.6,0.7,2.7,2.3,2.7,4
	C92.5,96.2,90.5,98.1,88.1,98.1z M87.6,86.6H55.3c-0.8,0-1.4,0.6-1.4,1.4c0,0.8,0.6,1.4,1.4,1.4h27.2c-0.8,1-1.3,2.2-1.4,3.5h-6.7
	c-0.8,0-1.4,0.6-1.4,1.4c0,0.8,0.6,1.4,1.4,1.4h6.9c1,3.4,4.3,5.6,7.8,5.1s6.2-3.5,6.2-7.1C95.2,90.3,92.7,86.6,87.6,86.6z"/>
</svg>
